<svg width="933.33" height="933.33" version="1" viewBox="0 0 700 700" xmlns="http://www.w3.org/2000/svg">
 <g stroke-width="1.0554">
  <path d="m215.17 55.706c-22.481 1.4776-39.262 11.188-46.439 26.914-3.1663 6.7548-3.5885 8.9712-4.0106 18.787-0.84434 20.264 5.4882 37.89 18.892 52.244 4.1162 4.4328 8.7601 10.238 10.554 12.982 3.694 5.8049 8.3379 19.842 8.3379 25.119v3.5885h37.573l1.6887-9.0767c2.2164-11.926 6.6492-20.581 15.198-30.08 12.137-13.404 16.992-22.903 20.053-38.734 2.7441-14.143 1.161-26.914-4.5384-37.468-3.694-6.6492-12.876-14.987-19.948-18.153-9.6044-4.2217-25.647-6.8603-37.362-6.1215zm37.996 19.631c11.293 5.5938 16.887 16.043 15.198 28.074-0.7388 5.1716-6.6492 21.636-7.4936 20.898-0.21109-0.31663 0.10554-3.3774 0.7388-6.8603 1.3721-6.9658 0.42217-15.515-2.533-22.481-2.4275-5.8049-10.449-15.831-15.831-19.842-2.6386-2.0053-4.855-3.9051-4.855-4.1162 0-1.161 8.6545 1.3721 14.776 4.3273zm192.09-7.1769c-10.238 4.6439-16.781 18.048-16.887 34.513v6.1215l2.6386-1.2665c2.2164-0.94989 2.6386-1.8998 2.6386-5.4882 0-6.6492 2.9552-17.626 5.8049-21.953 7.0714-10.765 21.531-10.976 37.784-0.63326l4.9605 3.1663-9.6044 9.1823c-5.3827 4.9605-10.449 9.1823-11.399 9.3933-19.103 3.694-33.668 9.9211-42.956 18.365-16.465 15.198-14.354 35.04 5.2772 48.444l6.6492 4.6439 0.52772 9.8155c0.52772 8.549 1.0554 10.765 4.1162 16.887 2.8497 5.5938 4.6439 7.5991 8.7601 10.132 9.2878 5.8049 23.008 4.7494 36.412-2.7441l5.5938-3.1663 6.227 2.7441c25.014 10.871 43.378 0.52772 45.595-25.541 0.21109-2.9552 0.10554-5.4882-0.31663-5.4882-2.322 0-4.3273 3.3774-5.3827 8.9712-2.9552 15.937-12.771 23.325-27.23 20.581-6.3326-1.161-13.087-3.9051-12.56-5.0661 0.10554-0.42218 4.6439-4.855 9.8155-9.8155 8.549-8.1268 10.132-9.1822 16.359-10.871 16.148-4.3273 31.663-14.459 37.573-24.486 3.5885-6.227 4.4328-14.354 2.0053-21.531-1.3721-4.2217-3.4829-7.2825-8.4435-12.137l-6.6492-6.4381 0.63325-7.5991c0.52772-8.4435-1.161-18.787-4.0106-24.486-2.7441-5.4882-9.71-11.293-14.987-12.771-8.0213-2.1109-16.992-0.52772-28.074 4.855l-9.8155 4.855-3.694-2.7441c-2.0053-1.4776-6.7548-4.2217-10.765-6.1215-8.549-4.0106-20.37-5.0661-26.597-2.322zm82.535 9.4989c5.9104 3.9051 9.3933 11.821 10.027 23.219 0.31663 4.855 0.21109 8.9712-0.42217 9.2878-0.52772 0.31663-5.1716-0.94989-10.449-2.9552-12.665-4.7494-25.33-6.9658-41.162-7.1769-7.1769-0.10554-13.087-0.42217-13.087-0.7388 0-0.63326 4.7494-5.2772 10.765-10.449l2.8497-2.4275 6.1215 5.2772c4.2217 3.5885 7.388 5.4882 10.343 5.9104l4.2217 0.7388-7.7046-7.5991c-5.6993-5.6993-7.388-7.9157-6.3326-8.549 2.533-1.7942 14.037-6.9658 16.676-7.4936 5.6993-1.161 13.932 0.10554 18.153 2.9552zm-29.235 28.074c16.465 2.0053 37.468 9.2878 37.468 13.087 0 2.7441-5.3827 18.47-6.227 18.47-0.52771 0-1.4776-1.5832-2.1109-3.4829-0.7388-1.7942-3.7996-7.7046-6.9658-12.982-5.0661-8.549-6.1215-9.71-9.1823-10.238-1.8998-0.21109-3.694-0.31663-3.9051-0.10554-0.21109 0.21108 1.0554 2.1109 2.7441 4.3273 4.2217 5.3827 11.082 17.415 14.037 24.697l2.4275 6.016-4.2217 7.8102c-6.6492 12.243-14.565 22.692-17.942 23.431-6.5437 1.4776-28.708 1.8998-37.784 0.7388-10.66-1.3721-30.08-6.9658-30.08-8.6545 0-2.8497 3.4829-15.726 4.2217-15.726 0.42217 0 2.2164 2.2164 3.7996 4.9605 6.9658 12.032 10.871 15.726 16.676 16.043 1.7942 0.10554 1.6887-0.31663-1.161-3.3774-5.5938-6.016-16.148-23.325-16.148-26.702 0-2.7441 10.027-21.214 16.359-30.185 5.1716-7.2825 6.1215-8.1268 9.71-8.549 8.4434-0.84434 19.103-0.7388 28.286 0.42218zm-41.267 3.2718c-0.42217 0.73881-2.533 4.0106-4.7494 7.1769-2.1109 3.1663-5.5938 8.9712-7.7047 12.876-2.2164 4.0106-4.1162 7.1769-4.3273 7.1769-0.52771 0-3.4829-9.71-4.2217-13.932-0.52772-3.694-0.7388-3.9051-3.1663-2.7441-2.9552 1.3721-2.8497 2.7441 1.4776 16.676l2.8497 8.9712-2.322 7.9157c-1.3721 4.3273-2.6386 9.2878-3.0608 10.871l-0.63326 2.9552-3.3774-2.322c-19.737-13.51-20.898-29.763-3.1663-43.589 9.1822-7.2825 35.357-16.887 32.402-12.032zm89.184 16.148c7.7046 8.7601 9.3933 17.098 5.1716 25.647-2.2164 4.3273-11.504 13.932-13.615 13.932-0.42217 0-1.161-1.7942-1.5832-4.0106-0.31663-2.1109-1.3721-6.3326-2.2164-9.3933-1.4776-5.3827-1.4776-5.5938 2.2164-15.515 2.1109-5.4882 3.7996-10.66 3.7996-11.504 0-1.5832 0.94988-2.8497 2.2164-2.8497 0.42217 0 2.2164 1.6887 4.0106 3.694zm-14.776 39.79c0.10554 3.694-0.10554 3.9051-5.3827 5.9104-3.0608 1.161-6.7548 2.4275-8.2324 2.8497-2.533 0.84435-2.533 0.73881-0.7388-1.6887 0.94989-1.3721 4.0106-6.3326 6.7548-10.871l5.0661-8.4435 1.2665 4.2217c0.63326 2.2164 1.2665 5.9104 1.2665 8.0213zm-89.501 12.349c13.826 4.7494 21.953 5.9104 40.951 5.9104h18.259l-7.1769 6.5437c-3.9051 3.694-7.7047 6.6492-8.4435 6.6492s-4.1162-2.2164-7.7046-4.855c-4.0106-2.9552-7.8102-4.9605-10.343-5.2772l-4.0106-0.63326 4.2217 4.1162c2.322 2.2164 6.1215 5.4882 8.4434 7.388l4.2217 3.3774-7.1769 3.2718c-17.731 8.3379-31.241 3.694-35.99-12.56-1.4776-4.9605-2.322-15.937-1.3721-15.937 0.21109 0 2.9552 0.84435 6.1215 2.0053z"/>
  <path d="m477.24 129.59c-3.5885 0.7388-7.7047 6.227-7.7047 10.343 0 6.9658 7.8102 12.454 14.143 10.027 9.3933-3.5885 9.3933-16.57-0.10554-20.159-1.3721-0.52772-2.8497-0.84435-3.2718-0.84435-0.42217 0.10554-1.7942 0.42217-3.0608 0.63326zm-131.72 23.431c-1.6887 0.42218-5.1716 1.8998-7.5991 3.3774l-4.5384 2.533v40.845l5.0661-2.9552c2.7441-1.5832 6.4381-3.7996 8.1268-4.7494l3.1663-1.8998 10.554 6.227 10.554 6.1215 0.31663-19.525c0.31662-22.797 0.84434-21.425-10.765-27.125-7.8102-3.9051-9.2878-4.1162-14.882-2.8497zm-140.9 46.017c-1.7942 2.1109-0.63326 4.5384 2.6386 5.8049 3.5885 1.3721 25.964 1.3721 29.447 0 3.1663-1.161 3.7996-5.6993 1.0554-6.7548-0.94988-0.31662-8.4434-0.63325-16.781-0.63325-12.032 0-15.304 0.31663-16.359 1.5831zm0 9.4989c-1.7942 2.1109-0.63326 4.5384 2.6386 5.8049 3.4829 1.3721 25.964 1.3721 29.341 0.10555 3.2718-1.2665 4.2217-3.7996 2.2164-5.9104-2.322-2.322-32.296-2.322-34.196 0zm161.27 7.7046c-2.2164 0.21109-4.0106 0.7388-4.0106 1.3721 0 0.52772-1.8998 0.94989-4.2217 0.94989s-4.2217 0.42217-4.2217 1.0554-3.2718 1.0554-7.8102 1.0554c-5.9104 0-7.9157 0.42217-8.4434 1.5832-0.42218 1.161-2.2164 1.5832-6.9658 1.5832-3.4829 0-6.3326 0.42217-6.3326 0.84434s-2.2164 1.4776-4.855 2.2164c-2.6386 0.84434-5.0661 2.0053-5.2772 2.7441-0.31663 0.7388-2.0053 1.5832-3.694 2.0053-1.7942 0.31663-4.0106 1.4776-4.9605 2.6386-0.94988 1.0554-4.1162 2.8497-6.8603 3.7996-5.5938 2.1109-9.1823 5.8049-9.1823 9.6044 0 1.3721-0.42217 2.533-1.0554 2.533-0.52771 0-1.0554 0.94989-1.0554 2.1109 0 1.161-0.63326 2.1109-1.4776 2.1109-0.84435 0-2.2164 0.63326-2.9552 1.4776-0.84435 0.7388-2.533 1.7942-3.7996 2.1109-1.2665 0.42217-2.322 1.4776-2.322 2.322 0 0.84435-0.42217 1.4776-1.0554 1.4776-0.52771 0-1.0554 1.0554-1.0554 2.322-0.10554 2.9552-3.1663 6.8603-5.9104 7.388-1.6887 0.31663-2.0053 1.3721-2.322 6.8603-0.21108 4.0106-0.84434 6.9658-1.7942 7.7046-0.84435 0.73881-1.5832 1.8998-1.5832 2.7441 0 0.7388-0.7388 2.0053-1.5832 2.8497-0.94988 1.0554-1.6887 4.4328-2.0053 9.2878-0.21108 4.3273-0.7388 9.8155-1.161 12.349-0.63326 3.4829-0.42217 4.9605 0.84434 6.3326 1.161 1.2665 1.6887 3.7996 1.6887 8.1268-0.10555 12.665 0.21108 17.626 1.2665 19.631 0.63326 1.3721 0.63326 2.0053-0.10554 2.0053-1.6887 0-1.2665 4.7494 1.0554 11.504 1.161 3.3774 2.322 8.2324 2.7441 10.765 0.42218 2.533 1.3721 5.2772 2.2164 6.016 0.7388 0.7388 1.3721 2.1109 1.3721 2.9552s0.52772 1.4776 1.0554 1.4776c0.63326 0 1.0554 0.94989 1.0554 2.0053 0 1.0554 0.73881 2.2164 1.5832 2.6386 0.84435 0.31663 1.5832 1.3721 1.5832 2.322s1.161 2.8497 2.6386 4.2217c1.4776 1.3721 2.6386 2.7441 2.6386 3.0608s1.161 1.7942 2.6386 3.2718c1.4776 1.4776 2.6386 3.7996 2.6386 5.1716 0 2.0053 0.52771 2.6386 2.2164 2.6386 2.4275 0 5.1716 2.322 5.1716 4.4328 0 0.7388-1.5832 3.0608-3.4829 5.0661-4.1162 4.3273-7.0714 9.9211-7.0714 13.404 0 1.2665-0.42217 2.4275-0.94989 2.4275-0.52771 0-1.161 2.322-1.5831 5.2772-0.42218 2.8497-1.161 5.4882-1.6887 5.8049-0.63325 0.31663-1.0554 1.5831-1.0554 2.7441 0 1.0554-0.42217 2.0053-0.84434 2.0053s-1.2665 1.5832-1.7942 3.3774c-0.63326 2.2164-2.2164 4.0106-4.2217 5.0661-1.6887 0.84435-3.2718 1.8998-3.4829 2.322-0.21108 0.52772-1.0554 0.84435-1.8998 0.84435-0.73881 0-4.6439 2.6386-8.549 6.016-4.0106 3.2718-7.388 6.1215-7.5991 6.227-1.161 0.94989 2.7441 6.9658 5.5938 8.6545 1.7942 1.161 19.631 11.399 39.684 22.903 20.053 11.504 37.257 21.636 38.312 22.481 1.5832 1.3721 1.7942 3.9051 1.7942 23.008v21.425l6.8603 3.3774c8.549 4.2217 12.56 3.7996 23.536-2.4275l7.5991-4.4328v-20.37c0-11.188-0.31663-20.37-0.7388-20.37-0.52772 0-1.6887 0.7388-2.7441 1.4776-1.7942 1.3721-3.4829-0.10554-19.631-16.043-18.892-18.892-29.869-28.919-31.98-29.658-1.3721-0.42217-4.9605-4.4328-5.0661-5.4882 0-0.31663-2.322-3.1663-5.2772-6.3326-2.8497-3.1663-5.2772-6.1215-5.2772-6.6492s-0.7388-1.7942-1.5832-2.7441c-0.94988-1.0554-3.2718-5.8049-5.2772-10.66-3.694-8.8656-4.6439-14.987-2.6386-16.254 0.63326-0.31663 1.0554-1.4776 1.0554-2.6386 0-1.0554 0.63326-2.1109 1.3721-2.4275 1.161-0.42217 1.3721 0.94989 1.161 6.4381-0.10554 3.9051 0.10555 6.227 0.52772 5.0661 0.7388-1.8998 0.84434-1.8998 2.6386-0.10554 1.3721 1.4776 1.7942 2.9552 1.2665 5.6993-0.63326 3.9051 2.322 10.66 4.5384 10.66 0.52772 0 1.2665 0.84435 1.5832 1.8998 0.7388 2.322 14.354 16.043 15.937 16.043 1.4776 0 0.10554-2.4275-3.1663-5.6993-2.4275-2.4275-3.694-4.7494-3.694-6.6492-0.10554-3.1663-2.1109-6.6492-4.1162-6.6492-0.63326 0-1.161-0.94989-1.161-2.1109 0-1.0554-0.63325-2.4275-1.3721-2.8497-1.5831-1.0554-8.7601-15.515-9.8155-19.842-0.42217-1.7942-1.0554-3.694-1.4776-4.2217-1.0554-1.4776-2.1109-21.636-1.3721-26.28 0.42218-2.7441 1.161-3.7996 2.533-3.7996 1.161 0 2.0053 0.31663 2.1109 0.7388 0 0.52772 0.21109 2.0053 0.42218 3.4829 0.31662 1.4776 0.63325 5.2772 0.94988 8.4435 0.73881 7.5991 1.6887 11.61 2.7441 11.61 1.3721 0 3.1663 6.3326 2.533 9.0767-0.94989 3.7996 1.3721 9.8155 3.5885 9.1822 2.0053-0.52771 6.5437 2.8497 6.5437 4.855 0 0.63326 0.7388 1.161 1.5831 1.161 0.84435 0 1.5832 0.52772 1.5832 1.161 0 1.4776 2.7441 4.1162 4.2217 4.1162 0.7388 0 1.0554 0.63326 0.7388 1.4776-0.42217 1.0554 0.42217 1.7942 2.533 2.2164 1.6887 0.42217 2.8497 1.161 2.4275 1.6887-0.31663 0.52772 0.21108 0.94989 1.161 0.94989 0.84435 0 1.8998 0.84435 2.322 1.7942 0.31663 1.0554 1.7942 3.4829 3.2718 5.3827 2.0053 2.8497 3.0608 3.3774 5.0661 2.9552 1.6887-0.42218 3.1663 0 4.6439 1.4776 1.161 1.161 2.8497 2.1109 3.694 2.1109 0.84435 0 1.5832 0.31663 1.5832 0.84435 0 0.42217 1.2665 2.1109 2.7441 3.694 1.8998 2.1109 3.2718 2.7441 4.7494 2.322 1.161-0.42217 2.8497-0.10554 3.694 0.63326 0.94988 0.84434 3.4829 1.0554 7.2825 0.63326 3.1663-0.31663 5.8049-0.21109 5.8049 0.21108 0 0.52772 1.8998 0.84435 4.2217 0.84435 2.8497 0 4.2217-0.42217 4.2217-1.3721 0-1.7942 0.94989-1.7942 4.5384-0.21109 2.6386 1.2665 4.0106 4.0106 2.0053 4.0106-0.52772 0-1.5832 1.2665-2.4275 2.8497-2.2164 4.3273-4.1162 5.4882-9.0767 5.5938-2.4275 0-4.6439 0.63326-4.9605 1.2665-0.52771 1.0554-0.7388 1.0554-1.2665 0-0.84435-1.8998-2.533-1.5832-2.533 0.52772-0.10554 1.6887-0.21109 1.6887-1.5832-0.10555-0.84434-1.161-1.5832-1.4776-1.5832-0.84434 0 0.7388-0.94988 1.2665-2.1109 1.2665-2.2164 0-3.0608 3.1663-0.7388 3.1663 0.63326 0.10555-0.10554 0.7388-1.8998 1.4776l-3.1663 1.3721 4.0106 0.84434c2.7441 0.52772 4.4328 1.6887 5.6993 3.694 2.322 4.0106 9.4989 5.3827 8.0213 1.4776-0.31663-0.7388-1.0554-1.161-1.5832-0.84435-0.63326 0.42218-0.94989 0.10555-0.63326-0.7388 0.31663-0.94989 2.6386-1.6887 6.227-2.0053 3.1663-0.31663 6.7548-1.161 7.9157-1.7942 1.2665-0.73881 2.533-1.0554 2.8497-0.73881 1.2665 1.2665 4.9605-0.94988 5.5938-3.3774 0.31663-1.3721 1.0554-2.533 1.5832-2.533 0.52771 0 0.94989-1.5832 0.94989-3.5885s0.63326-3.9051 1.3721-4.1162c0.94989-0.42218 0.84434-0.84435-0.31663-1.6887-1.0554-0.73881-1.161-1.161-0.21109-1.161 0.63326 0 1.2665-0.94989 1.2665-2.2164 0-2.7441 1.8998-4.6439 5.5938-5.3827 2.322-0.42217 2.8497-0.10554 2.8497 1.3721 0 2.7441 1.7942 2.533 2.4275-0.42217 0.31662-1.2665 1.161-4.4328 1.7942-7.0714 0.7388-2.6386 1.2665-9.0767 1.161-14.248-0.10554-9.9211 1.0554-14.143 3.0608-11.082 0.52771 0.84435 1.2665 3.694 1.5831 6.3326s1.4776 9.2878 2.6386 14.776c1.0554 5.4882 2.2164 12.137 2.6386 14.776 0.31663 2.6386 1.161 6.3326 1.8998 8.2324 0.94989 2.6386 0.94989 3.9051 0 5.4882-1.0554 1.5831 17.52-8.6545 50.45-27.969l6.016-3.4829 16.676 9.4989c18.365 10.343 18.892 10.449 25.225 4.855 5.5938-4.855 6.8603-8.0213 6.8603-17.415v-8.3379l-17.415-10.238-17.415-10.343v-18.892l-16.57-0.10554c-9.1822 0-20.264-0.52772-24.592-1.0554-4.3273-0.52771-11.61-1.2665-16.043-1.5831-4.5384-0.42218-8.2324-0.84435-8.2324-0.94989 0-0.21109 0.84434-2.4275 1.8998-4.9605 1.8998-4.3273 4.1162-15.62 4.5384-22.481 0.10554-1.7942-0.10554-6.7548-0.52772-11.188-0.84434-8.0213 0.63326-19.948 2.4275-19.948 1.4776 0 3.4829-6.016 3.3774-9.9211-0.21109-5.9104-0.21109-6.227 0.52771-9.6044 0.42218-1.7942 1.0554-3.3774 1.5832-3.694 0.42217-0.31663 0.94989-9.8155 1.161-21.003 0.21108-15.726 0-20.581-0.94989-20.898-0.7388-0.31663-1.3721-1.7942-1.3721-3.4829s-0.73881-3.694-1.5832-4.6439c-2.0053-2.0053-2.1109-10.554-0.10554-12.56 1.2665-1.2665 1.2665-1.8998-0.10555-4.7494-0.94989-1.8998-2.0053-3.3774-2.533-3.3774-0.52772 0-0.94989-0.7388-0.94989-1.5831 0-2.322-5.2772-7.9157-7.388-7.9157-2.6386 0-4.5384-2.7441-3.7996-5.5938 0.52772-2.2164-0.63326-3.1663-12.56-10.027-7.8102-4.5384-13.721-7.2825-14.67-6.9658s-1.6887 0.21109-1.6887-0.42217-4.0106-0.94989-10.343-0.84435c-8.6545 0.10555-10.66-0.21108-12.243-1.7942-1.0554-0.94989-2.9552-1.7942-4.3273-1.7942s-2.6386-0.31663-2.8497-0.84435c-0.10554-0.42217-2.1109-0.63326-4.2217-0.42217zm20.264 43.167c0 0.94989 2.322 1.3721 8.2324 1.3721 4.855 0 7.5991 0.42218 6.6492 0.94989-1.0554 0.73881-1.0554 1.2665 0.52772 3.1663 1.0554 1.161 2.4275 2.2164 3.0608 2.2164 0.52771 0 0.31663-0.42217-0.52772-1.0554-0.84434-0.52771-1.161-1.2665-0.84434-1.6887 0.42217-0.31663 1.4776 0.10555 2.4275 1.0554 0.94989 0.94989 1.2665 1.6887 0.63326 1.6887-1.7942 0-1.3721 3.9051 0.42217 4.6439 0.94989 0.31663 1.5832 0 1.5832-0.94988 0-0.84435 0.52772-1.5832 1.161-1.5832 0.63326 0 0.94989 2.2164 0.63326 6.016-0.31663 3.3774-0.31663 5.0661 0 3.7996 0.31663-1.6887 1.161-2.2164 3.1663-2.1109 1.4776 0.10554 2.8497-0.42217 3.0608-1.161 0.10554-0.7388 0-0.84434-0.31663-0.21108-0.63326 1.3721-2.4275 1.3721-2.4275 0.10554 0-1.8998 4.5384-2.533 5.6993-0.84434 0.7388 0.84434 2.1109 1.6887 3.1663 1.8998 1.0554 0.21109 2.322 1.161 2.8497 2.0053 2.1109 4.1162 4.1162 8.8656 4.1162 10.132 0 0.7388 0.42217 1.4776 0.84435 1.6887 0.52771 0.10554 1.2665 1.5831 1.6887 3.1663 0.63326 2.7441 0.52771 2.8497-2.7441 2.2164-2.7441-0.52772-3.1663-0.31663-2.6386 0.94989 0.7388 2.2164-2.1109 6.227-3.9051 5.4882-1.161-0.42217-1.4776 0.63326-1.4776 4.7494-0.10555 3.9051 0.31662 5.3827 1.3721 5.3827 0.7388 0 1.7942 0.94988 2.1109 2.1109 0.31663 1.161 1.161 2.1109 1.7942 2.1109 0.52772 0 0.84435-0.63326 0.52772-1.3721-0.42217-1.0554 0.21109-1.3721 1.8998-0.94989 2.6386 0.42217 4.2217 4.2217 3.1663 7.5991-0.63326 1.8998-5.1716 3.1663-11.821 3.1663-2.6386 0-3.4829 0.42217-3.4829 2.0053 0 4.7494-2.322 8.549-6.8603 10.765-7.0714 3.4829-7.7046 5.4882-5.1716 17.52 0.31663 1.8998 1.0554 3.4829 1.5832 3.4829 0.52771 0 0.94989 1.161 0.94989 2.533 0 1.3721 0.7388 4.5384 1.5832 6.9658 0.84434 2.4275 1.5831 5.8049 1.5831 7.4936s0.42218 3.0608 0.84435 3.0608 1.4776 1.6887 2.2164 3.694c1.2665 3.5885 0.42218 7.388-2.2164 9.0767-1.5832 1.0554-14.987 0.10555-15.409-1.0554-0.52772-1.4776-11.821-1.5832-11.821-0.10554 0 0.52771-1.161 1.0554-2.6386 1.0554-2.0053 0-2.6386-0.52772-2.6386-2.1109 0-3.7996 3.694-6.5437 9.4989-7.1769 2.8497-0.21109 5.2772-0.84434 5.2772-1.161 0-1.4776-4.3273-5.3827-6.016-5.3827-2.7441 0-10.871 5.6993-11.504 8.0213-1.161 4.5384 0 9.3934 2.533 10.449 1.2665 0.52771 2.322 1.4776 2.322 2.0053 0 0.63326 0.63326 0.21108 1.3721-0.7388 1.8998-2.6386 13.087-2.9552 14.987-0.42218 0.7388 1.0554 2.6386 1.7942 4.6439 1.7942 3.5885 0 3.9051 0.63326 1.7942 3.4829-1.3721 1.7942-1.0554 7.0714 0.42217 7.0714 1.161 0 5.2772 3.7996 5.2772 4.9605 0 3.1663-18.787 5.2772-21.531 2.4275-1.3721-1.3721 1.7942-4.2217 4.6439-4.2217 2.7441 0 4.2217-2.322 4.2217-6.5437 0-3.694-0.31663-4.0106-2.8497-4.1162-5.2772-0.21109-7.0714 0.31663-8.549 2.322-0.84435 1.2665-2.2164 1.8998-3.2718 1.4776-1.0554-0.31663-2.8497 0.42218-4.1162 1.5832-1.6887 1.5832-2.322 1.7942-2.322 0.7388s-0.84435-1.3721-2.6386-0.94989c-1.5832 0.21109-2.6386 0-2.6386-0.7388 0-0.84434-0.52772-0.94989-2.0053-0.10554-1.161 0.52771-2.8497 0.7388-3.694 0.42217-1.161-0.42217-1.6887 0-1.6887 1.2665s-0.31663 1.5832-0.84435 0.84434c-1.2665-2.0053-8.2324-2.7441-9.921-1.0554-0.84435 0.73881-2.4275 1.6887-3.5885 1.8998-1.3721 0.21109-2.2164 1.5832-2.6386 4.2217-0.31663 2.2164-0.21109 3.694 0.21109 3.3774 1.0554-0.63326 2.3219 3.4829 1.4776 4.855-0.31663 0.52772 0.31663 1.0554 1.4776 1.0554 1.161 0 2.4275-0.52772 2.7441-1.161 2.0053-3.1663 7.0714-3.1663 12.137 0 4.5384 2.8497 12.876 6.227 16.465 6.6492 2.2164 0.31663 3.2718 0.31663 2.322 0.10554-1.0554-0.21108-1.8998-1.0554-1.8998-1.8998 0-2.1109 2.7441-2.6386 4.9605-1.0554 1.0554 0.84435 2.7441 1.5832 3.7996 1.5832 0.94989 0 1.7942 0.52772 1.7942 1.161s-0.7388 0.94989-1.5831 0.52771c-0.94989-0.31663-1.5832 0-1.5832 0.94989 0 0.84435 0.94989 1.5832 2.1109 1.5832 1.161 0 2.1109 0.42217 2.1109 1.0554s3.4829 1.0554 8.2324 1.161c4.4328 0.10555 7.1769 0.31663 6.016 0.63326-1.161 0.31663-2.533 0.94989-3.1663 1.4776-0.52772 0.52771-2.533 0.94989-4.4328 0.94989-1.8998 0-3.4829 0.42217-3.4829 1.0554 0 0.52771-0.94989 1.0554-2.1109 1.0554-1.161 0-2.1109-0.42217-2.1109-0.94989 0-1.0554-4.2217-2.0053-6.1215-1.3721-1.3721 0.42217-1.6887 4.3273-0.42217 6.016 0.42217 0.63326 2.7441 1.7942 5.2772 2.6386 4.4328 1.3721 9.71 5.0661 9.71 6.6492 0 0.42217 0.94988 1.8998 2.1109 3.0608 1.8998 2.0053 1.8998 2.4275 0.52772 3.2718-0.84435 0.42217-2.1109 0.52772-2.7441 0.21109-0.63326-0.42218-1.0554-0.10555-0.84434 0.63325 0.42217 3.2718-0.21109 4.2217-2.4275 3.9051-1.5831-0.21108-2.3219-0.94989-2.2164-2.2164 0.21108-3.4829-6.9658-8.6545-10.871-7.9157-2.7441 0.42217-3.3774 5.0661-0.7388 5.1716 1.4776 0 1.5832 0.21109 0.31663 0.63326-0.84435 0.31663-1.8998 1.161-2.322 1.7942-0.52772 0.7388-0.84435 0.42217-0.84435-0.73881 0-2.7441-2.8497-2.1109-3.5885 0.84435-0.63326 2.533-3.7996 3.7996-3.7996 1.4776 0-1.4776-2.6386-4.1162-4.1162-4.1162-0.63326 0-1.161 0.52772-1.161 1.161 0 0.63326-0.63325 0.94989-1.2665 0.63326-0.73881-0.21108-1.2665-1.0554-1.0554-1.6887 0.31662-1.3721-0.42218-1.4776-4.855-0.21108-2.6386 0.84434-3.694 0.63326-5.0661-0.63326-0.84435-0.94989-1.3721-2.322-1.0554-3.0608 0.42217-1.161-0.10555-1.161-2.6386 0.21108-3.3774 1.6887-3.7996 1.6887-8.8656-1.6887-1.6887-1.161-3.9051-2.4275-4.855-2.7441-0.94989-0.31663-2.6386-2.322-3.694-4.4328-1.161-2.1109-2.6386-4.5384-3.2718-5.2772-0.73881-0.7388-1.3721-1.8998-1.3721-2.4275 0-0.52772-1.0554-0.94989-2.4275-0.94989-3.1663 0-4.9605-1.8998-4.9605-5.3827 0-1.8998-0.63325-2.9552-2.1109-3.3774-1.161-0.31663-2.4275-1.3721-2.8497-2.533-0.42218-1.0554-1.8998-3.0608-3.2718-4.4328-2.2164-2.2164-2.4275-3.1663-1.8998-7.7047 0.52772-4.0106 0.31663-5.4882-0.94989-6.8603-1.2665-1.161-1.3721-1.8998-0.52771-2.4275 0.63325-0.42218 1.0554-1.161 0.94988-1.6887-0.10554-0.52771-0.10554-3.9051 0-7.5991 0.10555-4.7494 0.52772-6.5437 1.4776-6.5437 1.0554 0 1.4776-1.4776 1.5832-4.7494 0-3.3774-0.42218-4.7494-1.3721-4.7494-0.84435 0-1.7942-1.6887-2.2164-4.0106-0.31663-2.1109-0.94989-5.3827-1.3721-7.0714-0.42218-1.7942-0.42218-5.0661 0.10554-7.2825 0.63326-2.6386 0.52772-4.5384-0.10554-5.1716-0.7388-0.7388-0.52772-2.0053 0.42217-3.9051 1.3721-2.6386 1.2665-3.1663-0.52772-5.2772-2.6386-3.0608-3.694-6.227-2.322-7.5991 0.73881-0.73881 0.73881-1.6887-0.10554-3.0608-0.94989-1.5832-0.94989-2.533 0-4.1162 0.94989-1.3721 0.94989-2.2164 0.21109-2.7441-1.161-0.7388 3.1663-4.3273 4.6439-3.7996 0.52771 0.10554 0.52771-0.31663 0.10554-0.94989-0.31663-0.63326-0.10554-1.5832 0.63326-2.0053 0.84434-0.52772 1.4776-4.3273 1.6887-11.188 0.21109-5.5938 0.84435-10.554 1.3721-10.871 0.52772-0.42218 1.161-5.2772 1.3721-10.976 0.21109-7.2825 0.7388-10.238 1.6887-10.238 0.63326 0 1.2665-0.94989 1.2665-2.2164 0-2.533 1.7942-4.6439 5.0661-5.5938 1.2665-0.42218 2.322-1.161 2.322-1.5832 0-0.42218 2.4275-0.31663 5.3827 0.31663 4.855 0.94989 5.5938 0.84434 7.1769-0.94989 2.1109-2.6386 8.3379-4.855 11.293-4.1162 1.2665 0.31662 2.6386 0.10554 2.9552-0.52772 0.42217-0.7388 4.5384-1.161 10.238-1.161 6.8603 0 9.9211-0.42217 11.082-1.4776 1.7942-1.8998 10.976-1.7942 10.976 0.10554zm48.55 40.423c0 0.52771-0.52772 1.0554-1.161 1.0554-0.52772 0-0.73881-0.52772-0.42218-1.0554 0.31663-0.63326 0.84435-1.0554 1.161-1.0554 0.21108 0 0.42217 0.42218 0.42217 1.0554zm-154.52 39.579c0.94989 0.84435 2.533 1.5832 3.694 1.5832 2.6386 0 7.2825 2.9552 7.2825 4.7494 0 0.63326 1.0554 1.7942 2.4275 2.4275 1.6887 0.84434 1.8998 1.161 0.52771 1.161-0.94988 0.10554-2.0053 0.7388-2.2164 1.3721-0.84435 1.8998-2.8497-1.161-2.1109-3.0608 0.31662-0.7388-0.21109-1.3721-1.161-1.3721s-1.6887 0.63326-1.6887 1.4776c0 0.84435-0.63326 1.6887-1.2665 2.0053-0.84434 0.21109 0.52772 2.2164 3.4829 5.0661 4.5384 4.4328 5.5938 7.2825 2.533 7.2825-1.5832 0-2.8497 4.0106-1.4776 4.855 0.52771 0.31663 0.94989 0.10554 0.94989-0.52772 0-1.4776 4.7494-6.4381 6.227-6.4381 1.161 0 1.5832 1.2665 1.161 4.6439-0.10555 1.0554 0.42217 4.9605 1.0554 8.6545 1.161 6.016 1.0554 7.0714-0.52772 9.4989-1.3721 2.1109-1.4776 2.9552-0.52771 3.5885 1.0554 0.63326 1.0554 1.6887 0 4.6439-1.0554 3.3774-1.5832 3.7996-4.9605 3.7996-5.6993 0-11.821-3.1663-11.926-6.1215 0-1.2665-0.63326-2.322-1.2665-2.322-0.94989 0-1.0554-0.31663-0.21108-0.84434 1.5831-1.0554 3.0608-6.9658 1.4776-6.016-1.161 0.7388-5.1716-3.3774-5.2772-5.4882 0-0.63326-0.63326-1.3721-1.2665-1.6887-1.0554-0.31663-1.2665-3.4829-1.0554-12.349l0.21109-11.821-2.6386 0.63325c-1.7942 0.42218-2.6386 0.21109-2.7441-0.63325-0.21109-2.6386 0.31663-4.3273 1.8998-5.9104 1.4776-1.4776 1.4776-1.7942-0.21109-2.9552-1.5832-1.161-1.5832-1.3721 0.21109-1.7942 2.9552-0.84435 7.5991 0.10554 9.3933 1.8998zm149.03-0.84434c-1.0554 0.21108-2.7441 0.21108-3.694 0-1.0554-0.31663-0.21109-0.52772 1.7942-0.52772s2.8497 0.21109 1.8998 0.52772zm-12.137 7.1769c0.42217 0.84435 0.21109 1.7942-0.31663 2.1109-0.63326 0.42217-1.0554-0.31663-1.0554-1.4776 0-2.6386 0.63326-2.8497 1.3721-0.63326zm9.1823 2.1109c0 3.2718-0.31663 3.694-2.6386 3.694-1.4776 0-2.6386-0.52772-2.6386-1.0554 0-0.63325 0.52771-1.0554 1.0554-1.0554 0.63326 0 1.0554-1.161 1.0554-2.6386 0-1.6887 0.63326-2.6386 1.5832-2.6386 1.0554 0 1.5832 1.161 1.5832 3.694zm-15.198 0c1.4776 1.3721 1.3721 1.5831-0.52771 1.5831-1.2665 0-2.2164-0.63326-2.2164-1.5831 0-0.84435 0.31663-1.5832 0.63326-1.5832s1.2665 0.7388 2.1109 1.5832zm4.3273 4.3273c-0.31663 0.31662-1.2665 0.42217-2.0053 0.10554-0.84434-0.31663-0.52771-0.63326 0.63326-0.63326 1.161-0.10554 1.7942 0.21109 1.3721 0.52772zm4.0106 18.365c0.84435 0 2.1109 1.0554 2.7441 2.322 0.73881 1.3721 1.7942 2.7441 2.322 3.1663 1.0554 0.63326 1.6887 6.227 1.5832 14.037 0 13.615 0.63326 12.349-6.1215 12.349-3.7996 0-4.2217-0.21108-4.2217-2.2164 0-3.4829 1.161-5.3827 3.5885-5.4882 1.161 0 1.5832-0.31663 0.94989-0.63326-0.73881-0.21108-1.3721-1.7942-1.3721-3.4829 0-1.5832-0.63326-4.5384-1.4776-6.4381-0.7388-2.0053-1.6887-6.8603-2.0053-10.765-0.42217-6.5437-0.31663-6.9658 1.0554-5.0661 0.84435 1.2665 2.1109 2.2164 2.9552 2.2164zm-38.207 38.523c-0.31663 0.94989-0.84435 1.4776-1.0554 1.161-0.31663-0.31663-0.21108-0.94989 0.21109-1.5832 0.94989-1.6887 1.5832-1.3721 0.84435 0.42217zm-5.9104 4.2217c-0.42217 0.84434-1.161 1.5832-1.7942 1.5832-1.4776 0-1.3721-2.8497 0.31663-3.4829s2.2164-0.10554 1.4776 1.8998zm8.7601 0.42217c0 0.52772-0.7388 1.161-1.5832 1.5832-0.94988 0.31663-1.5831 0-1.5831-0.94989 0-0.84435 0.7388-1.5832 1.5831-1.5832 0.84435 0 1.5832 0.42217 1.5832 0.94989zm41.69 3.2718c0.31663 0.52771-1.0554 4.0106-3.1663 7.5991-4.7494 8.1268-4.3273 7.7046-6.1215 6.016-1.7942-1.6887-0.21108-11.399 2.2164-13.404 2.0053-1.4776 6.1215-1.6887 7.0714-0.21108zm-24.803 9.1822c-0.84435 0.31663-2.2164 1.0554-2.8497 1.6887-0.94989 0.73881-1.3721 0.52772-1.3721-0.7388 0-1.161 0.84435-1.6887 2.9552-1.5831 1.5832 0 2.2164 0.31662 1.2665 0.63325zm11.61 4.5384c0 0.52772-0.73881 1.0554-1.5832 1.0554-0.84435 0-1.5832-0.52771-1.5832-1.0554 0-0.63326 0.7388-1.0554 1.5832-1.0554 0.84434 0 1.5832 0.42217 1.5832 1.0554zm0 7.9157c0 2.0053-0.42218 3.694-1.0554 3.694-0.52771 0-1.0554 0.7388-1.0554 1.5832 0 0.84434 0.52772 1.5831 1.0554 1.5831 0.63326 0 1.0554 0.42218 1.0554 1.0554 0 0.52772-1.161 1.0554-2.6386 1.0554-3.0608 0-3.694-3.3774-1.0554-5.9104 0.84434-0.94989 1.5831-2.7441 1.5831-4.2217 0-1.3721 0.52772-2.533 1.0554-2.533 0.63326 0 1.0554 1.6887 1.0554 3.694zm85.49 11.715c0 1.2665-0.7388 2.6386-1.6887 2.9552-1.3721 0.52771-1.5832 0.21108-1.0554-1.6887 0.31663-1.3721 0.63326-3.3774 0.63326-4.5384 0-1.7942 0.21108-1.7942 1.0554-0.52772 0.52771 0.84435 1.0554 2.6386 1.0554 3.7996zm-108.18 4.6439c0.31662 0.52771 0.10554 1.0554-0.42218 1.0554-0.63326 0-1.161-0.52772-1.161-1.0554 0-0.63326 0.21108-1.0554 0.42217-1.0554 0.31663 0 0.84435 0.42217 1.161 1.0554z"/>
  <path d="m419.93 296.66c0 2.1109 3.3774 4.6439 4.6439 3.4829 1.2665-1.2665 0.63326-4.3273-1.0554-4.9605-2.7441-1.0554-3.5885-0.73881-3.5885 1.4776zm-82.324 0.52772c0 0.84434 0.21109 1.5831 0.42217 1.5831 0.21109 0 0.63326-0.7388 1.0554-1.5831 0.31663-0.84435 0.10555-1.5832-0.42217-1.5832-0.63326 0-1.0554 0.7388-1.0554 1.5832zm10.554 26.386c-1.4776 0.84434-4.3273 1.4776-6.4381 1.5832-2.4275 0-5.1716 1.0554-7.5991 2.8497-3.7996 2.9552-5.3827 6.3326-2.322 5.1716 0.94989-0.31663 1.5832 0 1.5832 0.94988 0 0.84435 0.52772 1.5832 1.0554 1.5832 0.63326 0 1.0554 0.7388 1.0554 1.5832 0 0.84434 0.84434 1.5832 1.8998 1.4776 1.0554 0 1.2665-0.31663 0.52772-0.63326-2.533-0.94988-1.3721-2.4275 1.7942-2.4275 1.7942 0 3.1663-0.52771 3.1663-1.161s0.94989-0.94989 2.1109-0.63326c1.161 0.31663 3.9051 0 6.227-0.52772 3.4829-0.84434 4.5384-0.7388 5.9104 0.63326 1.2665 1.2665 2.8497 1.4776 5.9104 1.0554 2.7441-0.42217 4.1162-0.31663 4.1162 0.52772 0 0.63326-0.63325 1.161-1.3721 1.161-0.7388 0-3.0608 0.84435-5.1716 2.0053-2.1109 1.0554-7.2825 2.2164-11.504 2.6386-7.5991 0.7388-12.56 2.322-12.56 4.0106 0 0.42218-0.73881 0.84435-1.6887 0.84435-1.2665 0-1.4776 0.31663-0.63326 1.3721 0.63326 0.7388 0.7388 1.8998 0.21108 2.7441-0.42217 0.84435-0.63326 2.1109-0.31663 2.9552 0.52772 1.2665 0.84435 1.161 2.322-0.10554 2.7441-2.4275 7.9157-0.94989 6.7548 2.0053-0.31663 0.94989 0.10554 1.5831 0.84434 1.5831 0.84435 0 0.52772 0.63326-0.7388 1.5832-1.7942 1.4776-1.5832 1.5832 3.4829 1.161 4.3273-0.31663 5.2772-0.10555 4.855 1.0554-0.31663 0.84434 0 1.4776 0.7388 1.4776 0.63326 0 0.84435 0.52772 0.52772 1.0554-0.42217 0.63326-1.161 0.84435-1.6887 0.52772-1.3721-0.94989-1.161 0.94989 0.31663 2.4275 1.4776 1.4776 10.343 1.6887 10.343 0.21109 0-0.63326 1.161-1.0554 2.6386-1.0554 2.533 0 8.8656-2.6386 10.027-4.1162 0.52771-0.7388 9.71-3.2718 12.665-3.5885 0.94988-0.10555 1.6887-0.94989 1.6887-2.0053 0-2.322-0.10555-2.322-2.0053-0.31663-1.4776 1.3721-1.5832 1.0554-1.2665-2.9552 0.21109-2.4275 0.42217-4.7494 0.42217-5.2772 0.10554-0.42217 0.7388-0.7388 1.5832-0.7388 2.1109 0 2.8497-2.6386 1.3721-4.6439-0.7388-0.94989-3.5885-2.8497-6.5437-4.3273-3.1663-1.5832-4.1162-2.322-2.4275-2.0053 2.0053 0.42217 3.694 0 5.6993-1.5832 1.5832-1.2665 3.5885-2.2164 4.5384-2.322 1.0554 0 1.2665-0.21108 0.42217-0.63326-0.7388-0.21108-1.3721-1.2665-1.3721-2.1109 0-0.94989-0.63326-1.3721-1.4776-1.0554-0.84435 0.31663-1.6887 0.10554-2.0053-0.63326-0.21109-0.7388-3.9051-1.5832-9.2878-2.0053-4.855-0.42217-11.188-0.94989-14.143-1.161-2.8497-0.21108-6.6492-0.7388-8.4434-1.0554-1.8998-0.42217-4.2217-0.10554-5.8049 0.84435zm11.61 19.631c0 1.4776-1.7942 1.0554-2.4275-0.52772-0.42217-1.0554-0.10554-1.3721 0.94989-0.94989 0.7388 0.31663 1.4776 0.94989 1.4776 1.4776zm12.876 2.322c0.94989 1.4776-3.9051 3.9051-7.7046 3.9051-3.0608 0-3.0608 0-1.4776-3.1663 1.3721-2.7441 2.0053-3.0608 5.0661-2.4275 1.7942 0.31662 3.694 1.161 4.1162 1.6887zm11.399 4.9605c0 0.52772-0.7388 1.0554-1.5832 1.0554-0.84434 0-1.5831-0.52772-1.5831-1.0554 0-0.63325 0.7388-1.0554 1.5831-1.0554 0.84435 0 1.5832 0.42218 1.5832 1.0554z"/>
  <path d="m332.33 341.41c0 0.21109 0.7388 0.63326 1.5832 1.0554 0.84434 0.31663 1.5832 0.10555 1.5832-0.42217 0-0.63326-0.73881-1.0554-1.5832-1.0554-0.84435 0-1.5832 0.21109-1.5832 0.42217zm36.94 42.956c0 1.4776-2.1109 3.4829-4.6439 4.4328-1.161 0.42218-1.6887 1.3721-1.2665 2.322 0.31663 0.84435-0.31663 2.1109-1.3721 2.8497-2.6386 1.8998-3.7996 4.1162-1.7942 3.3774 0.94988-0.31663 1.6887-1.0554 1.6887-1.4776 0-0.42218 1.161-1.161 2.533-1.4776 1.4776-0.31663 2.9552-1.5832 3.2718-2.7441 0.31663-1.161 1.0554-2.1109 1.4776-2.1109 0.42217 0 0.84434-1.4776 0.94988-3.1663 0-1.7942-0.10554-3.1663-0.42217-3.1663-0.21109 0-0.42217 0.52771-0.42217 1.161zm-19.314 18.365c-1.0554 1.4776-1.4776 2.6386-1.0554 2.6386 0.94989 0 4.5384-3.7996 4.5384-4.7494 0-1.2665-1.7942-0.21109-3.4829 2.1109zm-6.227 24.486c0.7388 0.31663 1.6887 0.21108 2.0053-0.10555 0.42218-0.31663-0.21108-0.63326-1.3721-0.52771-1.161 0-1.4776 0.31663-0.63326 0.63326zm-57.521-69.658c-1.5832 0.52771-1.8998 4.5384-0.42218 4.5384 0.52772 0 1.161-1.161 1.3721-2.6386 0.31663-1.4776 0.52771-2.6386 0.42217-2.533 0 0-0.7388 0.31663-1.3721 0.63326zm-11.926 9.2878c0 0.84434 0.52772 1.5831 1.0554 1.5831 0.63326 0 1.0554 0.63326 1.0554 1.2665 0 0.7388 1.3721 2.8497 2.9552 4.7494 2.2164 2.4275 3.3774 3.0608 4.5384 2.322 0.94989-0.63326 1.0554-0.94989 0.21108-0.94989-0.7388 0-1.5831-1.161-2.0053-2.6386-0.31663-1.4776-1.0554-2.6386-1.5831-2.6386-0.52772 0-0.94989-0.52772-0.94989-1.161 0-1.2665-3.0608-4.0106-4.4328-4.1162-0.52772 0-0.84435 0.7388-0.84435 1.5832zm18.576 12.243c-2.0053 2.0053-2.0053 2.0053 0.21108 2.0053 1.5832 0 2.322-0.63326 2.322-2.1109 0-2.533 0-2.533-2.533 0.10554zm-81.479-159.79c-1.0554 4.1162 1.6887 5.5938 10.765 5.5938 7.7046 0 10.976-1.3721 10.976-4.6439 0-2.9552-2.7441-3.7996-11.821-3.7996-9.1822 0-9.2878 0-9.9211 2.8497zm121.8 2.1109c0.7388 0.31663 1.6887 0.21109 2.0053-0.10554 0.42217-0.31663-0.21109-0.63326-1.3721-0.52772-1.161 0-1.4776 0.31663-0.63325 0.63326zm-155.99 29.658c-7.9157 5.3827-10.554 10.238-10.554 19.948v7.5991l16.992 10.132c9.2878 5.4882 17.098 10.027 17.415 10.027 0.21109 0 0.42218-4.855 0.42218-10.871l0.10554-10.765 8.3379-4.7494 8.4434-4.855-15.515-8.8656c-8.6545-4.855-16.57-9.3933-17.731-10.132-1.7942-1.161-2.8497-0.84435-7.9157 2.533zm323.28 8.1268-17.098 9.71 14.565 8.2324 0.31663 11.188 0.31663 11.293 17.309-10.132 17.204-10.132-0.42217-9.1822c-0.42218-8.0213-0.7388-9.6044-3.3774-13.087-2.9552-3.7996-8.6545-8.0213-10.66-7.8102-0.52772 0.10554-8.7601 4.5384-18.153 9.9211zm109.03 27.125c-0.7388 1.3721-8.6545 16.043-17.415 32.613-17.309 32.929-18.048 35.146-13.404 40.74 2.533 2.9552 2.533 2.9552 0.52771 6.6492-1.0554 2.0053-1.8998 4.1162-2.0053 4.5384 0 0.52771 3.9051 2.7441 8.7601 4.9605l8.6545 4.1162 2.0053-4.1162c1.8998-3.9051 2.4275-4.2217 6.5437-4.2217 6.016 0 8.6545-2.7441 15.198-15.831l5.3827-10.765 4.3273 0.63326c2.322 0.42217 6.5437 1.8998 9.4989 3.3774 24.592 12.454 29.869 45.172 10.554 64.487-12.243 12.243-28.708 15.304-47.178 8.8656-8.7601-3.0608-12.137-5.9104-12.137-10.132 0-6.227 1.5832-6.8603 16.992-6.8603h13.615v-9.4989h-81.268v9.4989h13.51c17.731 0 17.098-0.63326 17.098 17.204v13.404h-4.9605c-10.132 0-15.093 2.7441-15.093 8.3379v2.2164l65.226-0.7388c35.779-0.31663 65.331-0.7388 65.542-0.94989 1.0554-0.94988-1.2665-5.8049-3.3774-6.8603-1.2665-0.7388-6.9658-1.4776-12.56-1.7942l-10.343-0.52771 4.7494-3.5885c8.7601-6.9658 16.992-19.737 20.053-31.663 0.84434-3.3774 1.5831-10.554 1.5831-16.148 0-8.2324-0.52771-11.504-2.9552-18.47-6.227-17.837-18.998-30.924-36.412-37.468l-6.1215-2.322 5.9104-11.188c3.1663-6.1215 5.8049-12.243 5.8049-13.615 0-2.0053-2.1109-3.4829-14.776-9.8155-8.1268-4.0106-15.937-7.388-17.415-7.388-1.5832 0-3.1663 0.94989-4.1162 2.322zm12.137 8.8656c2.7441 1.3721 3.0608 1.7942 1.6887 2.8497-0.84435 0.7388-6.8603 11.399-13.404 23.642-6.5437 12.349-12.032 22.481-12.243 22.481-1.5832 0-8.8656-3.5885-8.8656-4.4328 0-1.3721 22.059-42.112 24.064-44.434 2.0053-2.2164 4.6439-2.322 8.7601-0.10554zm-606.45 17.626c-2.533 2.533-3.694 4.855-4.2217 8.2324-0.31663 2.533-0.52772 19.842-0.31663 38.418 0.42217 46.122-2.533 42.745 37.784 42.745h27.441v12.665h-12.771c-14.037 0-18.47 1.2665-21.636 6.016-2.2164 3.5885-2.2164 11.821 0 15.409 3.9051 5.9104 5.1716 6.016 50.239 6.016 45.172 0 46.333-0.10554 50.239-6.1215 2.4275-3.5885 2.4275-11.61 0.10554-14.987-3.9051-5.4882-6.5437-6.3326-21.531-6.3326h-14.037v-12.665h28.074c30.713 0 31.98-0.21109 35.674-6.3326 1.4776-2.6386 1.6887-7.5991 1.6887-40.106 0-40.001-0.10554-41.056-5.6993-44.75-2.4275-1.4776-9.6044-1.6887-75.147-1.6887h-72.403zm142.06 6.016c4.7494 2.6386 5.1716 5.4882 5.1716 36.94 0 32.191-0.31662 34.302-5.8049 36.729-2.0053 0.94989-19.209 1.2665-65.964 1.2665h-63.326l-3.3774-3.0608-3.4829-3.0608-0.31663-28.919c-0.21109-15.831-0.10554-30.291 0.31663-32.085 0.31663-1.8998 1.7942-4.6439 3.3774-6.1215l2.7441-2.7441h64.276c42.112 0 65.015 0.42218 66.387 1.0554zm-24.486 103.33c0.84434 0.52772 1.161 1.6887 0.84434 2.6386-0.52771 1.3721-2.6386 1.6887-12.771 1.6887-12.137 0-14.143-0.63326-12.876-3.694 0.42217-1.2665 2.9552-1.5831 11.926-1.5831 6.227 0 12.032 0.42217 12.876 0.94988zm51.294 18.47-16.887 9.9211v8.9712c0 8.549 0.21108 9.2878 3.2718 13.087 1.7942 2.2164 5.4882 5.2772 8.2324 6.9658l4.9605 2.8497 17.415-9.71c9.4989-5.3827 17.309-10.027 17.309-10.343s-3.7996-2.6386-8.4434-5.2772l-8.3379-4.7494-0.63326-21.742zm140.16 35.462c0.21108 0.84435 1.2665 1.6887 2.4275 1.7942 1.3721 0.21109 1.5832 0.10555 0.42217-0.42217-0.84434-0.31663-2.0053-1.161-2.4275-1.7942-0.63326-0.7388-0.7388-0.63326-0.42217 0.42217zm35.568 4.7494c0 0.84435 0.52772 1.5832 1.0554 1.5832 0.63325 0 1.0554-0.7388 1.0554-1.5832 0-0.84434-0.42218-1.5831-1.0554-1.5831-0.52772 0-1.0554 0.7388-1.0554 1.5831zm52.033 3.3774c-2.6386 1.7942-3.3774 4.855-1.0554 3.9051 0.7388-0.21108 2.0053 0.7388 2.8497 2.2164 2.0053 3.694 3.1663 3.2718 3.1663-1.0554 0-2.0053 0.52772-3.694 1.0554-3.694 0.63326 0 1.0554-0.73881 1.0554-1.5832 0-2.1109-4.0106-2.0053-7.0714 0.21108zm-39.368 2.4275c0 0.52771 0.52772 1.0554 1.0554 1.0554 0.63326 0 1.0554-0.52772 1.0554-1.0554 0-0.63326-0.42218-1.0554-1.0554-1.0554-0.52771 0-1.0554 0.42217-1.0554 1.0554zm32.718 0c0 0.52771 0.52772 1.0554 1.0554 1.0554 0.63325 0 1.0554-0.52772 1.0554-1.0554 0-0.63326-0.42218-1.0554-1.0554-1.0554-0.52772 0-1.0554 0.42217-1.0554 1.0554zm-61.215 3.7996c0.84434 0.42217 2.0053 1.3721 2.4275 2.1109 1.161 2.0053 3.9051 1.8998 3.9051-0.10554 0-0.84434-0.63326-1.5832-1.2665-1.5832-0.7388 0-2.533-0.31663-4.0106-0.52771-1.4776-0.31663-1.8998-0.21109-1.0554 0.10554zm147.76 0.7388c-5.6993 1.7942-14.354 10.871-15.831 16.57-2.6386 9.9211-1.5831 13.193 17.415 50.45 9.8155 19.209 19.103 36.096 20.898 37.996 5.4882 5.8049 10.871 8.0213 18.681 8.0213 7.2825 0 10.976-1.4776 16.781-6.3326 5.4882-4.5384 7.9157-10.449 8.0213-18.681v-7.1769l-17.837-35.04c-19.209-37.89-22.481-42.639-31.135-45.595-5.3827-1.7942-11.61-1.8998-16.992-0.21109zm15.62 9.6044c1.5832 0.84435 3.5885 2.322 4.5384 3.3774 2.8497 3.2718 14.67 26.28 14.67 28.602 0 3.1663-25.964 16.043-27.969 13.932-0.73881-0.84435-4.2217-7.0714-7.8102-13.932-7.2825-14.037-8.1268-19.525-4.3273-25.858 4.2217-6.8603 13.932-9.71 20.898-6.1215zm38.523 58.471c6.1215 12.349 7.0714 14.882 7.0714 19.842 0 13.087-8.6545 21.109-21.742 20.264-9.8155-0.63326-12.982-3.5885-21.742-20.37-4.0106-7.4936-7.1769-14.67-7.1769-15.937 0-4.0106 9.2878-10.238 23.642-15.831 11.293-4.4328 11.715-4.1162 19.948 12.032zm-317.16-65.542c-3.694 0.42217-4.0106 0.63326-4.0106 3.9051 0 1.8998-0.31663 5.5938-0.63326 8.1268-0.63326 4.2217-1.161 4.9605-6.3326 8.0213l-5.6993 3.2718-7.4936-3.2718-7.4936-3.3774-2.6386 3.1663c-6.4381 7.8102-6.3326 7.2825-0.84434 13.721l4.9605 5.9104-2.7441 12.454-15.62 5.6993 0.7388 6.4381c0.42217 3.5885 0.94989 6.7548 1.2665 7.1769 0.21108 0.52771 2.533 0.84434 4.9605 0.84434 8.9712 0 10.449 0.7388 13.721 6.9658l3.0608 5.8049-3.3774 7.1769c-1.7942 3.9051-3.2718 7.4936-3.2718 7.9157 0 0.7388 6.7548 6.9658 9.1822 8.4434 1.161 0.63326 2.7441-0.21109 5.3827-2.7441 8.4434-7.8102 8.2324-7.5991 13.193-6.227 8.4434 2.533 8.549 2.6386 11.188 10.449l2.533 7.388 3.7996-0.42218c11.61-1.5831 10.66-0.84434 10.765-7.5991 0.10554-8.1268 0.7388-9.2878 6.8603-12.771l5.2772-3.0608 7.388 3.4829 7.4936 3.3774 3.0608-3.694c6.1215-7.5991 6.1215-6.7548 0.42217-13.404-5.1716-6.1215-5.1716-6.1215-3.694-9.8155 0.84435-2.0053 1.5832-4.5384 1.5832-5.5938 0-2.9552 2.533-4.7494 10.027-7.2825l6.7548-2.2164-0.52771-4.9605c-1.0554-9.6044-1.161-9.71-5.4882-9.71-9.6044 0-11.504-0.94989-14.987-6.9658l-3.1663-5.6993 3.0608-6.8603 3.0608-6.7548-5.0661-4.3273c-2.7441-2.322-5.3827-4.2217-5.8049-4.2217-0.42218 0-3.2718 2.1109-6.3326 4.6439l-5.4882 4.7494-5.1716-1.6887c-2.8497-0.94989-5.6993-1.7942-6.3326-2.0053-0.7388-0.10554-2.533-3.5885-4.1162-7.7046-3.1663-8.2324-2.322-7.9157-13.404-6.7548zm22.903 32.824c6.227 3.2718 11.082 8.3379 13.932 14.776 2.2164 4.6439 2.533 6.8603 2.2164 12.665-0.94988 17.309-13.932 28.708-30.819 27.441-8.2324-0.7388-13.932-3.5885-19.525-9.9211-10.343-11.821-9.8155-27.758 1.3721-39.051 3.9051-3.7996 7.2825-6.016 10.765-7.1769 6.7548-2.2164 16.57-1.5832 22.059 1.2665zm153.57-31.98c0 0.84435 0.52772 1.5832 1.0554 1.5832 0.63325 0 1.0554-0.7388 1.0554-1.5832 0-0.84434-0.42218-1.5831-1.0554-1.5831-0.52772 0-1.0554 0.7388-1.0554 1.5831zm4.3273 0.31663c-0.10554 0.73881 0.63326 1.5832 1.4776 1.8998 2.533 0.94989 1.7942 2.6386-0.7388 2.0053-3.1663-0.7388-6.227 1.161-4.1162 2.533 0.84435 0.52771 1.2665 1.8998 0.94989 3.0608-0.52771 1.8998-0.31663 2.0053 1.2665 1.0554 1.0554-0.7388 1.6887-2.0053 1.3721-2.8497-0.42217-1.3721-0.31663-1.3721 0.52772-0.21109 1.7942 2.4275 5.4882-0.42217 5.4882-4.2217 0-2.9552-0.31663-3.2718-2.533-2.6386-1.5831 0.42218-2.7441 0.10555-3.0608-0.7388-0.42217-0.94989-0.63326-0.94989-0.63326 0.10554zm-55.305 1.3721c0.7388 0.7388 1.5831 1.0554 1.8998 0.7388s-0.21108-0.94989-1.2665-1.2665c-1.4776-0.63326-1.5831-0.52772-0.63325 0.52772zm24.592 14.037c0 0.84434 0.42218 1.7942 0.94989 2.1109 0.52772 0.31663 1.2665 2.322 1.5832 4.4328l0.7388 3.694 4.9605-2.8497c5.1716-2.9552 8.7601-5.8049 4.7494-3.694-3.1663 1.5831-7.2825 0.42217-9.71-2.6386-2.322-2.8497-3.2718-3.1663-3.2718-1.0554zm19.42 0.21108c-1.8998 1.4776-1.8998 1.5832 0.42217 0.42218 1.2665-0.63326 2.322-1.3721 2.322-1.5832 0-0.84435-0.52772-0.63326-2.7441 1.161zm-27.863 10.976c0 0.52772 0.52772 1.0554 1.0554 1.0554 0.63326 0 1.0554-0.52771 1.0554-1.0554 0-0.63326-0.42217-1.0554-1.0554-1.0554-0.52771 0-1.0554 0.42217-1.0554 1.0554zm39.579 6.6492c-6.9658 2.322-10.449 4.5384-15.093 9.6044-6.227 6.7548-7.9157 11.188-8.0213 21.214 0 7.0714 0.42218 9.2878 2.7441 13.721 1.5831 3.1663 16.148 20.264 35.674 41.901 38.101 42.428 38.207 42.534 53.299 42.534 7.0714 0 9.2878-0.52772 13.826-2.8497 6.7548-3.5885 13.51-11.082 15.62-17.415 2.0053-5.9104 2.1109-16.254 0.21108-21.742-2.322-6.3326-5.0661-9.71-38.418-46.65-26.914-29.974-32.191-35.251-37.151-37.679-6.9658-3.5885-16.57-4.6439-22.692-2.6386zm16.992 11.188c3.0608 1.3721 8.8656 6.9658 19.737 19.103 8.549 9.3933 15.515 17.52 15.515 18.153 0 2.0053-7.4936 11.293-12.454 15.409-11.504 9.4989-16.254 11.821-20.686 10.132-2.9552-1.161-28.18-30.08-30.291-34.618-7.9157-17.415 10.765-36.096 28.18-28.18z"/>
 </g>
</svg>
